<?xml version="1.0" encoding="utf-8"?>
<!-- Generator: Adobe Illustrator 28.0.0, SVG Export Plug-In . SVG Version: 6.00 Build 0)  -->
<svg version="1.0" xmlns="http://www.w3.org/2000/svg" xmlns:xlink="http://www.w3.org/1999/xlink" x="0px" y="0px"
	 viewBox="0 0 2804 611" style="enable-background:new 0 0 2804 611;" xml:space="preserve">
<style type="text/css">
	.st0{display:none;}
	.st1{display:inline;opacity:0.25;fill:#FFFFFF;}
	.st2{fill:#FFFFFF;}
	.st3{fill:none;}
</style>
<g id="Fundo">
	<rect width="2804" height="611"/>
</g>
<g id="Margem_x5F_Proteção" class="st0">
	<rect class="st1" width="152.4" height="152.4"/>
	<rect y="459" class="st1" width="152.4" height="152.4"/>
	<rect x="2652" class="st1" width="152.4" height="152.4"/>
	<rect x="2652" y="459" class="st1" width="152.4" height="152.4"/>
</g>
<g id="Logo">
	<g>
		<g>
			<g>
				<path class="st2" d="M1220.99,305.59c0-41.16,13.88-79.05,37.23-109.37c-74.48,44.92-114.06,109.37-114.06,109.37
					s25.79,41.97,74.85,81.77l15.06-14.47c-8.45-20.79-13.09-43.51-13.09-67.3H1220.99z"/>
				<path class="st2" d="M1400.45,168.43c-74.9,0-136.73,60.67-136.73,135.2c0,22.33,5.3,43.93,13.64,62.47
					c1.57,3.53,3.18,6.63,4.7,9.38l-59.13,57.69l24.37,24.76l69.36-67.66l12.22-12.33c0,0-30.04-25.2-29.43-76.07
					c0.63-55.44,45.31-98.74,101-98.74c14.53,0,28.86,2.22,41.95,8.15l26.42-24.47c-20.67-12.01-44.31-18.36-68.34-18.36H1400.45z"
					/>
				<path class="st2" d="M1583.38,305.46c0,41.16-13.88,79.05-37.23,109.37c74.48-44.89,114.06-109.37,114.06-109.37
					s-25.79-41.97-74.85-81.77l-15.06,14.47c8.45,20.79,13.09,43.51,13.09,67.3H1583.38z"/>
				<path class="st2" d="M1403.89,442.62c74.9,0,136.73-60.67,136.73-135.2c0-22.33-5.3-43.93-13.64-62.47
					c-1.57-3.53-3.17-6.63-4.7-9.38l59.13-57.69l-24.37-24.76l-69.36,67.66l-12.22,12.33c0,0,30.04,25.2,29.43,76.07
					c-0.63,55.44-45.31,98.74-101,98.74c-14.53,0-28.86-2.22-41.95-8.15l-26.42,24.47c20.67,12.01,44.31,18.36,68.34,18.36H1403.89z
					"/>
				<path class="st2" d="M1431.09,319.98c22.3,0,40.37-17.99,40.37-40.19c0-22.2-18.07-40.19-40.37-40.19
					c-22.3,0-40.37,18-40.37,40.19C1390.72,301.99,1408.8,319.98,1431.09,319.98z"/>
				<path class="st2" d="M152.19,396.51V214.09h94.57c17.77,0,28.7,1.91,36.35,6.29c12.3,6.84,18.04,20.24,18.04,41.85
					c0,17.5-3.01,26.53-10.66,32.82c-5.46,4.38-10.11,6.29-17.76,7.66v0.82c24.33,3.01,32.25,13.4,32.25,43.21
					c0,37.2-13.94,49.78-55.49,49.78H152.19z M194.28,288.75h36.63c16.67-0.27,18.04-0.55,21.59-2.73c4.92-2.73,6.83-8.2,6.83-18.32
					c0-15.59-3.83-18.87-20.77-18.87h-44.28V288.75z M194.28,361.78h35.26c28.43,0,33.62-3.28,33.62-20.79
					c0-12.58-2.19-18.05-8.47-20.78c-3.55-1.37-4.37-1.37-20.5-1.64h-39.91V361.78z"/>
				<path class="st2" d="M370.45,248.82v39.93h81.18v29.81h-81.18v43.21h87.47v34.74H328.36V214.09h128.46v34.74H370.45z"/>
				<path class="st2" d="M563.47,250.46v146.05h-42.09V250.46h-49.2v-36.38h142.95v36.38H563.47z"/>
				<path class="st2" d="M717.22,250.46v146.05h-42.09V250.46h-49.2v-36.38h142.95v36.38H717.22z"/>
				<path class="st2" d="M828.49,248.82v39.93h81.18v29.81h-81.18v43.21h87.47v34.74H786.4V214.09h128.46v34.74H828.49z"/>
				<path class="st2" d="M941.48,396.51V214.09h90.75c18.86,0,31.16,1.91,39.63,6.29c16.13,7.93,22.41,21.88,22.41,48.96
					c0,38.02-5.74,47.32-33.62,53.61v1.37c21.59,1.37,32.25,13.4,31.98,35.83v36.38H1050v-28.44c0.55-18.33-7.11-26.53-23.78-25.98
					h-42.64v54.43H941.48z M983.58,306.26h43.73c19.68,0,24.05-5.47,24.05-29.81c0-21.88-3.83-26.26-24.05-26.26h-43.73V306.26z"/>
				<path class="st2" d="M1927.36,215.44v180.85h-41.12v-75.92c0-14.64,0.27-20.88,1.89-52.06l0.81-17.35h-1.35l-5.14,16.81
					c-9.2,29.55-11.91,37.69-16.23,49.89l-28.95,78.63h-36.53l-29.22-78.36c-4.87-13.56-7.04-19.8-16.77-49.89l-5.14-16.54h-1.35
					l0.81,17.08c1.9,30.91,2.17,39.04,2.17,51.79v75.92h-41.13V215.44h66.02l24.35,67.51c4.06,11.93,6.76,20.34,17.32,56.12h1.62
					l4.06-14.1c7.04-24.67,8.93-31.18,12.72-41.76l23.81-67.78H1927.36z"/>
				<path class="st2" d="M2034.52,214.09c25.43,0,37.34,1.63,47.89,6.24c16.77,7.32,26.52,20.06,30.03,40.4
					c1.62,8.13,2.16,20.06,2.16,45.01c0,40.94-1.89,53.14-9.74,66.43c-7.04,11.39-19.21,19.25-35.44,22.78
					c-7.85,1.63-22.46,2.71-38.96,2.71c-28.41,0-42.21-2.44-53.57-8.95c-14.34-8.13-21.65-19.79-24.89-38.5
					c-1.35-8.13-1.89-17.35-1.89-36.87c0-47.18,2.16-62.63,11.09-75.38c7.04-10.3,19.75-18.17,34.36-21.15
					C2002.86,215.17,2018.02,214.09,2034.52,214.09z M2031.55,249.88c-18.94,0-25.16,1.35-30.57,6.23
					c-7.31,6.51-8.39,13.01-8.39,55.31c0,29.01,1.35,36.87,7.03,43.65c4.6,5.42,12.18,6.78,35.44,6.78
					c22.46,0,29.22-2.98,33.55-14.37c2.98-8.14,3.52-14.64,3.52-42.3c0-36.06-0.81-40.94-7.3-48.53
					C2060.23,251.23,2053.19,249.88,2031.55,249.88z"/>
				<path class="st2" d="M2311.53,215.44v180.85h-70.35l-39.77-87.58c-4.87-10.85-7.31-16.81-17.32-43.11l-5.68-14.37h-1.62
					c1.08,24.94,1.62,43.92,1.62,57.48v87.58h-40.86V215.44h69.81l37.61,83.78c8.39,18.71,8.93,20.06,18.94,45.28l6.22,14.91h1.62
					l-0.54-14.1c-1.08-20.34-1.08-22.78-1.08-42.03v-87.85H2311.53z"/>
				<path class="st2" d="M2382.12,249.88v39.58h80.36v29.55h-80.36v42.84h86.58v34.43h-128.25V215.44h127.17v34.44H2382.12z"/>
				<path class="st2" d="M2652.19,215.44L2585.9,330.4v65.89h-41.67V330.4l-64.4-114.96h47.62l21.65,41.21
					c2.7,5.15,4.6,8.95,11.9,23.86l3.79,8.14h1.08l4.06-8.14c7.03-14.1,8.66-17.62,12.18-23.86l21.91-41.21H2652.19z"/>
			</g>
		</g>
		<rect class="st3" width="2804" height="611"/>
	</g>
</g>
</svg>
